# xmcd
#
# Track frame offsets:
#	150
#	20487
#	36820
#	55720
#	79272
#	101105
#	119670
#	134342
#	154570
#	173117
#	189377
#	213415
#	234927
#	252875
#	271325
#	288915
#
# Disc length: 4107 seconds
#
# Revision: 1
# Processed by: cddbd v1.5PL3 Copyright (c) Steve Scherf et al.
# Submitted via: CDex 1.50Beta5
#
DISCID=da100910
DTITLE=桂銀淑 - 桂銀淑全曲集
DYEAR=1988
DGENRE=Pop
TTITLE0=すずめの涙
TTITLE1=北空港
TTITLE2=いい女になったなら
TTITLE3=そして今は夢
TTITLE4=私には貴男だけ
TTITLE5=星おんな
TTITLE6=歌って踊って
TTITLE7=北風
TTITLE8=うぐいす
TTITLE9=大阪暮色
TTITLE10=流されて
TTITLE11=スペイン紀行
TTITLE12=離別
TTITLE13=別れのグラス
TTITLE14=雨の降る部屋
TTITLE15=ボンボヤージ
EXTD=
EXTT0=
EXTT1=
EXTT2=
EXTT3=
EXTT4=
EXTT5=
EXTT6=
EXTT7=
EXTT8=
EXTT9=
EXTT10=
EXTT11=
EXTT12=
EXTT13=
EXTT14=
EXTT15=
PLAYORDER=
